<svg version="1.1" width="50px" height="65px" viewBox="0 0 50 65" baseProfile="full" xmlns="http://www.w3.org/2000/svg" xmlns:xlink="http://www.w3.org/1999/xlink" xmlns:ev="http://www.w3.org/2001/xml-events">
	<path fill="#EBEBEB" d="M34.52,39.789c0.275-0.548,0.331-1.492,0.457-2.241c3.908-2.059,10.372-1.843,9.742-8.44
		c-1.744-3.589-3.456-8.097-6.693-10.546c-0.165-0.615-0.647-1.124-1.539-1.29c-0.207-0.039-0.401-0.06-0.593-0.071
		c0.001-0.002,0.001-0.006,0.002-0.009c-0.143-0.019-0.281-0.037-0.423-0.055c-0.052-0.02-0.1-0.034-0.149-0.049
		c-0.241-0.398-0.565-0.721-0.986-0.928c0.015-0.062,0.029-0.125,0.044-0.186c-1.687-1.606-4.752-1.834-4.116-5.765
		c-0.889-0.139-2.528,0.47-2.264-0.824c1.969,0.445,3.314-0.365,4.098-1.687c0.285-0.479,1.983,0.409,3.357,0.271
		c-0.007-0.08,1.468-0.501,1.441-0.893c-0.03-0.42-2.119-1.225-2.334-1.44c-0.679-0.679-2-0.505-2.076-0.728
		c-1.607-4.742-9.4-3.349-10.652,1.627c-0.084,0.334-0.568,0.685-0.591,1.049c-0.005,0.088,0.268-0.032,0.343,0.059
		c0.123,0.146,0.079,0.504,0.087,0.655c0.01,0.155-0.438,0.211-0.417,0.372c-0.149,0.259-0.46,0.746-0.705,0.758
		c-1.078,0.049,0.486,0.876,0.438,1.24c0.228,4.291-2.041,2.19-4.083,6.312c0.004,0.115,0.009,0.239,0.014,0.367
		c-1.165-0.405-2.577-0.071-2.83,1.415c-0.005,0.033-0.01,0.066-0.016,0.101c-3.357,3.239-10.095,6.336-8.059,12.578
		c0.524,1.605,2.409,3.684,3.773,4.733c1.976,1.524,4.8,1.762,6.48,3.325c0.104,0.355-0.408,1.29-0.077,1.42
		c3.039,1.527,3.445-2.116,2.586-4.745c-0.432-1.323-1.847-1.876-1.853-2.606c-1.064-0.457-2.438-0.045-2.824-1.254
		c0.844-0.836,2.221-0.963,3.237-1.628c0.549-0.274,1.183-1.275,1.373-1.647c0.098-0.193,0.137-0.502,0.096-0.754
		c0.049-0.041,0.1-0.081,0.148-0.128c0,0.001,0,0.002,0.002,0.003c0.218,0.31,0.561,0.655,0.926,1.018
		c0.371,2.141,1.184,4.967,3.133,6.082c1.166,0.67,2.521,0.354,3.631-0.242c0.183-0.099,0.354-0.216,0.526-0.345
		c1.138,0.535,2.734,0.146,3.17-1.352c0.464-1.593,0.951-3.177,1.465-4.753c0.185,0.236,0.401,0.44,0.638,0.624
		c-0.002,0.086-0.01,0.17-0.01,0.258c0.594,1.875,3.758,1.731,4.31,3.65c-2.627,0.331-4.516,1.226-5.219,3.481
		c-0.277,0.88-0.223,2.479-0.023,3.838c0.746,1.01,3.162,1.18,4.559,0.43c-0.933-0.162-1.86-0.108-2.003-1.064
		C34.372,39.803,34.429,39.974,34.52,39.789z"/>
	<g>
		<path d="M42.551,23.179c-1.015-1.984-2.263-3.9-3.911-4.94c-0.613-0.39-1.492-0.784-2.082-1.193c-1.961-1.365-3.3-3.025-5.423-4.17
			c-0.159-0.181-0.268-1.755-0.11-2.872c0.246-0.795,0.618-0.859,1.34-1.322c0.318-0.206,0.375-0.204,0.789-0.154
			c0.334,0.038,0.594-0.038,0.797-0.111c0.244-0.089,0.206-0.053,0.325-0.035c0.956,0.136,2.42-0.177,2.946-0.642
			c0.277-0.244,0.366-1.091-0.191-1.186c-1.452-0.249-2.447-1.606-3.559-2.016c-0.396-0.146-0.75-1.077-1.031-1.475
			c-0.65-0.925-1.626-1.478-2.95-1.716c-1.786-0.32-3.476,0.17-4.906,1.026c-1.24,0.743-2.034,2-2.117,2.116
			c-0.491,0.684-0.863,1.432-1.082,2.203c-0.252,0.308-0.407,0.41-0.817,0.41c-0.168,0.716,0.689,0.402,0.817,0.818
			c-0.255,0.608-0.952,0.782-1.442,1.158c-0.126,0.099-0.237,0.214-0.328,0.352C19.57,9.496,19.542,9.62,19.542,9.65
			c0.021,0.767,1.13,0.444,1.025,1.339c-0.101,0.492-0.033,1.208-0.089,1.775c-0.159,0.186-0.392,0.241-0.685,0.532
			c-0.403,0.402-0.834,0.7-1.313,1.058c-0.295,0.221-1.942,1.464-2.805,2.253c-1.067,0.574-3.161,2.107-5.264,4.332
			c-1.784,1.887-3.132,2.531-4.203,4.414c-1.802,3.177-0.775,6.863,0.732,8.791c2.088,2.676,6.041,3.643,8.165,6.303
			c-0.438,0.795-2.045,0.623-2.197,1.669c0.003,0.008,0.009,0.012,0.011,0.018c-0.002,0.015-0.008,0.024-0.011,0.038
			c0.358,0.749,2.952,0.341,2.959,0.323c0.441-0.133,0.834,0.014,0.937,0.031c0.044,0.34-0.094,0.767,0.382,0.803
			c0.191,0.016,1.573,0.006,2.221,0.157c0.241,0.059,0.474,0.119,0.697,0.182c0.145,0.083,0.291,0.128,0.291,0.128l3.367,1.522
			c0,0,1.11,0.528,1.786,0.528c0.627,0,1.595-0.528,1.595-0.528l3.212-1.492c0,0,0.095-0.032,0.215-0.089
			c0.512-0.179,1.01-0.349,1.488-0.481c1.226-0.341,1.847,0.014,2.243-0.295c0.288-0.591-0.434-0.901,0.129-1.092
			c0.882-0.215,3.071,0.206,3.182-0.784c-0.347-0.751-1.974-0.22-2.264-1.028c-0.934-3.021,3.019-3.059,5.145-3.911
			c1.269-0.51,2.62-1.286,3.5-2.264C46.736,30.833,43.924,25.856,42.551,23.179z M33.419,5.465c1.085,0.515,1.506,1.356,3.009,1.437
			c0.042,0.001,0.078,0.142,0.019,0.23c-0.696,0.971-2.49,0.276-3.251,0.015C33.314,6.803,33.521,6.288,33.419,5.465z M20.159,13.99
			c0.533-0.292,0.979-0.711,1.132-1.277c0.148-0.453,0.198-1.657,0.073-2.189c-0.073-0.312-0.251-0.418-0.476-0.693
			c0.315-0.579,1.624-1.739,1.181-2.387c0.514-0.341,0.689-2.257,1.77-3.411c0.116-0.123,0.237-0.237,0.362-0.347
			c2.991-2.158,8.046-2.064,8.47,2.408c-0.528,2.171-2.048,3.9-4.734,3.293c-0.263,1.293,1.374,0.684,2.264,0.824
			c-0.071,1.428-0.161,2.468,0.044,2.976c0.064,0.159,0.389,0.406,0.515,0.515c0.719,0.617,2.144,1.149,3.585,2.625
			c-1.029,4.117-1.377,8.08-2.889,11.511c-0.876-0.013-1.409-0.111-1.255-1.159c-0.484,0.065-0.135,0.864-0.835,0.713
			c-0.543-0.272-0.896-0.609-1.151-1.165c-0.024-0.054-0.096-0.077-0.103-0.033c-0.241,1.346,1.841,1.951,3.118,2.337
			c-0.617,2.175-1.689,3.723-2.395,5.74c-0.066,0.19-0.151,0.236-0.308,0.236c-2.288,0-3.711-0.006-6.142-0.006
			c-0.119,0-0.24-0.108-0.279-0.232c-0.645-1.979-1.41-3.744-1.992-5.737c1.103-0.012,1.756-0.531,2.16-1.242
			c0.045-0.076-0.046-0.303-0.103-0.284c-0.282,0.093-0.63,0.404-1.033,0.645c-0.567,0.334-0.912,0.288-1.393,0.127
			c-0.075-0.215-0.309-0.616-0.653-1.862c-0.708-2.558-1.75-7.034-2.061-8.852C17.023,17.008,18.685,14.793,20.159,13.99z
			 M17.438,41.086c-0.364-0.181-0.341-0.91-0.824-0.409c-0.321,0.083-0.447,0.159-0.466-0.057c-0.006-0.234,0.314-0.547,0.302-0.774
			c0-0.076-0.104-0.273-0.247-0.404c-0.161-0.152-0.541-0.411-0.554-0.398c-1.686-1.243-4.005-1.95-5.826-3.249
			c-1.677-1.196-3.409-3.279-3.707-4.941c-0.688-3.867,0.932-5.591,3.632-8c1.338-1.194,4.185-3.74,4.64-4.126
			c0.455-0.385,0.956-0.407,1.02-0.457c0.016,0.009,0.032,0.018,0.048,0.029c0.004,0.002-0.015-0.148-0.011-0.146
			c0.077,0.346,0.438,1.718,0.704,2.984c0.482,2.273,1.131,5.3,1.924,7.047c0.004-0.007,0.008-0.014,0.013-0.019
			c0.045,0.133,0.185,0.539,0.251,0.667c-0.584,1.957-3.233,2.042-4.604,3.404c0.526,1.66,2.502,1.126,3.706,2.47
			C18.819,36.25,18.938,39.293,17.438,41.086z M18.988,35.419c-0.274-0.821-1.435-1.808-1.782-2.332
			c-0.274-0.412-0.918-1.143-0.516-1.424c0.416-0.292,1.113-0.915,1.714-1.702c0.032-0.042,0.146-0.071,0.218,0.029
			c0.779,1.106,1.056,2.547,1.467,4.402c0.264,1.191,0.17,1.645-0.387,3.607C19.654,37.003,19.382,36.594,18.988,35.419z
			 M30.614,35.94c-0.439-1.962,1.432-4.592,1.723-5.17c0.037-0.071,0.137-0.187,0.182-0.162c0.604,0.338,1.516,0.951,1.259,1.416
			c-0.326,0.589-0.388,0.574-0.651,0.925C32.377,33.95,30.757,34.738,30.614,35.94z M34.522,37.177
			c-0.195,0.884-0.185,1.921-0.195,2.359c-0.008,0.291-0.414,0.137-0.832,0.109c0.14,0.959,1.125,1.07,2.057,1.237
			c-1.395,0.749-3.729-0.076-3.911-0.825c-0.239-1.786-0.237-3.15,0.284-4.122c0.773-1.441,2.776-2.311,4.967-2.629
			c0.101-0.013,0.251-0.356,0.021-0.665c-0.935-1.253-3.513-1.982-4.232-3.243c0.069-0.291,0.138-0.636,0.344-1.321
			c0.351-1.173,0.65-2.391,0.96-3.466c0.66-2.317,1.407-4.436,1.774-6.786c4.54,1.383,6.12,5.722,7.948,9.816
			c0.227,0.507,0.492,1.061,0.57,1.567c0.081,0.507,0.181,0.865,0.153,1.272C44.085,35.668,38.148,35.268,34.522,37.177z"/>
		<path d="M28.837,5.156c0.182,0.153-0.187,0.59,0.225,0.857c0.342,0.225,0.605,0.107,0.825-0.047c0.1-0.072,0.134-0.224,0.213-0.218
			c0.167,0.012,0.2,0.11,0.317,0.107c0.184-0.003,0.248,0.003,0.403,0.032c-0.241-1.303-1.235-1.855-2.78-1.854
			c-0.035,0-0.118,0.064-0.122,0.094C27.767,4.948,28.472,4.849,28.837,5.156z"/>
		<path d="M25.054,27.091c-0.285-0.276-0.408-1.77-0.617-1.442C24.359,26.413,24.405,27.053,25.054,27.091z"/>
		<path d="M26.083,26.884c-0.123-0.425,0.333-1.429-0.41-1.235C25.796,26.073,25.339,27.079,26.083,26.884z"/>
		<path d="M22.997,27.707c-0.151-0.466,0.368-1.605-0.412-1.441C22.619,26.849,22.406,27.678,22.997,27.707z"/>
	</g>
	<g>
		<path d="M21.874,63.317c-0.816,0-1.506-0.249-1.844-0.669c-0.261-0.322-0.391-0.765-0.391-1.313v-3.954
			c0-0.735,0.545-1.342,1.053-1.585c0.333-0.164,0.739-0.248,1.18-0.248c0.255,0,0.514,0.029,0.767,0.088
			c0.912,0.211,1.453,0.886,1.447,1.801v0.053l-1.149,0.119l-0.013-0.054c-0.086-0.422-0.185-0.635-0.53-0.783
			c-0.155-0.065-0.358-0.103-0.561-0.103c-0.207,0-0.401,0.039-0.56,0.115c-0.145,0.071-0.306,0.205-0.393,0.333
			c-0.077,0.109-0.135,0.325-0.135,0.487v3.688c0,0.601,0.365,0.869,0.623,0.869h1.047c0.167,0,0.354-0.099,0.444-0.24
			c0.044-0.067,0.068-0.169,0.068-0.293V60.16H21.78v-1.196l2.35-0.004v0.063c0.002,0.56,0.007,2.412,0,2.81
			c-0.002,0.161-0.006,0.268-0.044,0.403C23.884,62.947,22.82,63.317,21.874,63.317z"/>
		<path d="M14.037,54.228c-0.374,0-0.729-0.093-1.032-0.268c-0.309-0.176-0.525-0.543-0.606-1.031
			c-0.117-0.665,0.035-1.405,0.372-1.798c0.372-0.434,0.978-0.61,2.092-0.61c0.169,0,0.346,0.004,0.528,0.01l0.048,0.002l0.009-0.046
			c0.05-0.237,0.095-0.834-0.094-1.061c-0.039-0.05-0.182-0.134-0.668-0.134c-0.371,0-0.928,0.06-1.271,0.224l-0.051,0.024
			l-0.028-0.049c-0.166-0.262-0.323-0.579-0.456-0.917l-0.02-0.055l0.049-0.024c0.539-0.25,1.224-0.401,1.835-0.401
			c0.755,0,1.325,0.227,1.606,0.633c0.411,0.594,0.363,1.598,0.317,2.568c-0.029,0.636-0.059,1.237,0.034,1.733
			c0.051,0.258,0.264,0.733,0.366,0.96l0.04,0.088h-1.207l-0.018-0.031c-0.05-0.096-0.164-0.341-0.188-0.574l-0.014-0.155
			l-0.087,0.133c-0.312,0.487-0.896,0.779-1.557,0.779H14.037L14.037,54.228z M14.955,51.555c-0.744,0-1.212,0.138-1.354,0.399
			c-0.187,0.34-0.139,0.848,0.091,0.984c0.177,0.107,0.366,0.159,0.562,0.159c0.316,0,0.625-0.141,0.857-0.387
			c0.267-0.283,0.403-0.668,0.379-1.087l-0.003-0.044l-0.048-0.004C15.367,51.568,15.185,51.555,14.955,51.555z"/>
		<path d="M28.939,54.228c-0.982,0-2.105-0.443-2.249-1.417l-0.008-0.054l1.058-0.325l0.021,0.053
			c0.146,0.368,0.735,0.584,1.226,0.584c0.32,0,0.58-0.089,0.734-0.25c0.116-0.119,0.171-0.274,0.163-0.46
			c-0.022-0.556-0.564-0.621-1.044-0.679c-0.122-0.017-0.248-0.032-0.364-0.054c-0.666-0.142-1.124-0.37-1.327-0.66
			c-0.436-0.62-0.378-1.752,0.118-2.284c0.339-0.367,0.903-0.579,1.546-0.579c0.818,0,1.587,0.334,1.962,0.854l0.036,0.045
			l-0.049,0.037c-0.374,0.288-0.619,0.484-0.753,0.601l-0.049,0.041l-0.039-0.049c-0.174-0.214-0.614-0.373-1.048-0.373
			c-0.513,0-0.834,0.215-0.834,0.562c-0.002,0.667,0.618,0.739,1.217,0.81c0.351,0.04,0.709,0.081,0.98,0.232
			c0.392,0.215,0.69,0.68,0.781,1.211c0.097,0.573-0.057,1.141-0.423,1.552C30.259,54.002,29.641,54.228,28.939,54.228z"/>
		<path d="M38.624,63.423c-0.982,0-2.108-0.443-2.25-1.415l-0.007-0.055l1.057-0.325l0.021,0.053
			c0.145,0.365,0.736,0.584,1.225,0.584c0.321,0,0.581-0.09,0.735-0.25c0.116-0.12,0.172-0.272,0.163-0.459
			c-0.023-0.558-0.565-0.622-1.044-0.682c-0.131-0.012-0.252-0.027-0.365-0.05c-0.664-0.144-1.123-0.37-1.328-0.662
			c-0.434-0.618-0.376-1.752,0.119-2.285c0.339-0.37,0.906-0.578,1.548-0.578c0.819,0,1.587,0.335,1.961,0.851l0.034,0.046
			l-0.047,0.039c-0.384,0.299-0.623,0.489-0.752,0.599l-0.051,0.043l-0.038-0.05c-0.175-0.215-0.614-0.371-1.049-0.371
			c-0.514,0-0.834,0.215-0.834,0.562c-0.003,0.663,0.618,0.737,1.216,0.808c0.353,0.042,0.711,0.081,0.98,0.231
			c0.394,0.219,0.691,0.681,0.782,1.212c0.098,0.574-0.057,1.14-0.423,1.554C39.942,63.199,39.324,63.421,38.624,63.423
			L38.624,63.423z"/>
		<path d="M34.614,54.184c-0.521,0-0.927-0.026-1.082-0.074c-0.41-0.123-1.094-0.458-1.094-1.347v-2.742
			c0-0.906,0.152-1.099,0.302-1.289l0.034-0.041c0.326-0.427,0.868-0.514,1.266-0.514h1.159c0.841,0,1.159,0.271,1.376,0.682
			c0.051,0.1,0.126,0.375,0.137,0.604c0.01,0.237,0.01,3.411,0,3.581c-0.011,0.167-0.086,0.423-0.235,0.618
			c-0.177,0.232-0.608,0.409-0.959,0.478C35.383,54.165,35.02,54.184,34.614,54.184z M33.928,49.304
			c-0.112,0-0.324,0.161-0.324,0.416c-0.005,0.069-0.003,1.998,0,2.924c0,0.175,0.152,0.43,0.386,0.43l1.168,0.002
			c0.298,0,0.357-0.2,0.357-0.497V49.72c0-0.384-0.243-0.416-0.315-0.416H33.928z"/>
		<path d="M27.694,63.381c-0.521,0-0.928-0.028-1.084-0.078c-0.408-0.118-1.091-0.457-1.091-1.346v-2.741
			c0-0.904,0.153-1.097,0.301-1.287l0.032-0.042c0.328-0.426,0.87-0.516,1.269-0.516h1.157c0.844,0,1.16,0.273,1.375,0.683
			c0.051,0.098,0.13,0.377,0.14,0.606c0.011,0.24,0.011,3.416,0,3.576c-0.011,0.171-0.089,0.428-0.236,0.623
			c-0.187,0.245-0.634,0.411-0.959,0.474C28.461,63.362,28.091,63.381,27.694,63.381z M27.007,58.499
			c-0.11,0-0.322,0.163-0.322,0.418c-0.004,0.069-0.002,2.034,0,2.921c0,0.175,0.15,0.433,0.384,0.433h1.167
			c0.298,0,0.36-0.198,0.36-0.498v-2.855c0-0.388-0.243-0.418-0.317-0.418H27.007L27.007,58.499z"/>
		<path d="M33.183,63.381c-0.52,0-0.924-0.028-1.083-0.078c-0.407-0.118-1.092-0.457-1.092-1.346v-2.741
			c0-0.904,0.151-1.097,0.301-1.285l0.035-0.044c0.325-0.426,0.87-0.516,1.266-0.516h1.157c0.845,0,1.162,0.273,1.378,0.683
			c0.052,0.098,0.127,0.377,0.138,0.608c0.011,0.236,0.011,3.414,0,3.574c-0.011,0.171-0.086,0.428-0.238,0.623
			c-0.186,0.245-0.63,0.411-0.958,0.474C33.951,63.362,33.578,63.381,33.183,63.381z M32.495,58.499
			c-0.108,0-0.322,0.163-0.322,0.418c-0.003,0.069-0.002,2.034,0,2.921c0,0.175,0.149,0.433,0.388,0.433h1.167
			c0.297,0,0.357-0.198,0.357-0.498v-2.855c0-0.261-0.119-0.418-0.318-0.418H32.495L32.495,58.499z"/>
		<path d="M41.584,54.024l-0.001-2.954c0-0.6-0.025-1.031-0.148-1.333c-0.136-0.328-0.379-0.478-0.786-0.478
			c-0.047,0-0.095,0.002-0.147,0.006c-0.558,0.044-0.853,0.68-0.853,1.837v2.922h-1.184v-3.538c-0.021-0.59-0.078-1.271-0.323-1.803
			l-0.023-0.055l0.048-0.027c0.271-0.147,0.686-0.348,0.907-0.452l0.058-0.027l0.024,0.061c0.069,0.151,0.146,0.32,0.207,0.456
			l0.045,0.099c0.027,0.066,0.049,0.113,0.054,0.127l0.039,0.098l0.061-0.086l0.065-0.1c0.214-0.308,0.38-0.551,0.795-0.706
			c0.165-0.063,0.348-0.092,0.541-0.092c0.538,0,1.126,0.249,1.432,0.604c0.396,0.456,0.385,1.711,0.379,2.46
			c0,0.098-0.002,0.178-0.002,0.253v2.729H41.584L41.584,54.024z"/>
		<path d="M44.069,63.423c-0.3,0-0.584-0.019-0.864-0.057c-0.853-0.115-1.358-0.556-1.358-1.185v-3.523
			c0-0.396,0.211-0.663,0.313-0.792l0.027-0.032c0.284-0.37,0.997-0.598,1.861-0.598c0.86,0,1.623,0.23,1.894,0.579
			c0.183,0.229,0.35,0.53,0.35,1.146v1.995h-3.254v0.881c0,0.272,0.249,0.398,0.462,0.423c0.276,0.03,0.551,0.046,0.793,0.046
			c0.316,0,0.579-0.026,0.777-0.079l0.022-0.006c0.158-0.042,0.211-0.057,0.309-0.096l0.049-0.021l0.026,0.047
			c0.229,0.398,0.404,0.681,0.511,0.842l0.041,0.057l-0.062,0.032c-0.281,0.148-0.698,0.26-1.114,0.301
			C44.576,63.409,44.32,63.423,44.069,63.423z M45.105,59.795v-0.91c0-0.167-0.082-0.355-0.261-0.399
			c-0.146-0.034-0.539-0.051-0.838-0.051c-0.183,0-0.516,0.005-0.692,0.047c-0.188,0.044-0.229,0.192-0.238,0.415l-0.004,0.898
			H45.105L45.105,59.795z"/>
		<path d="M8.858,54.168c-0.08,0-0.164-0.003-0.249-0.011c-0.652-0.065-1.428-0.535-1.975-1.198L6.6,52.915l0.039-0.04
			c0.076-0.079,0.232-0.233,0.417-0.389c0.162-0.136,0.298-0.246,0.387-0.316l0.052-0.04l0.036,0.054
			c0.331,0.47,0.844,0.761,1.34,0.761c0.027,0,0.057-0.002,0.085-0.004c0.329-0.023,0.616-0.158,0.805-0.386
			c0.214-0.257,0.302-0.622,0.251-1.052c-0.069-0.608-0.696-0.863-1.359-1.131C8.134,50.16,7.599,49.945,7.24,49.55
			c-0.68-0.748-0.611-1.972,0.149-2.671c0.478-0.435,1.058-0.528,1.457-0.528c0.814,0,1.629,0.376,2.083,0.949l0.027,0.036
			l-0.025,0.037c-0.062,0.091-0.169,0.227-0.33,0.379c-0.155,0.142-0.295,0.253-0.383,0.326l-0.048,0.04l-0.039-0.05
			c-0.242-0.305-0.786-0.537-1.266-0.537c-0.579,0-0.917,0.312-0.927,0.855c-0.01,0.588,0.587,0.815,1.22,1.052
			c0.582,0.22,1.241,0.466,1.632,1.022c0.497,0.713,0.552,1.646,0.141,2.435C10.515,53.694,9.741,54.168,8.858,54.168z"/>
		<path d="M18.61,50.477c0.014-0.728-0.089-1.272-0.328-1.778l-0.022-0.05l0.938-0.532l0.033,0.044
			c0.151,0.209,0.236,0.426,0.328,0.669l0.048,0.131l0.056-0.127c0.204-0.46,0.684-0.733,1.283-0.733c0.617,0,1.156,0.294,1.34,0.733
			l0.05,0.115l0.05-0.113c0.206-0.443,0.722-0.729,1.319-0.729c0.198,0,0.389,0.033,0.569,0.097c0.873,0.31,1.057,1.152,1.072,2.409
			v3.408h-1.198v-3.41c0-0.854-0.277-1.284-0.821-1.284c-0.188,0-0.794,0.091-0.794,1.236v3.458h-1.134v-3.454
			c0-0.632-0.089-1.282-0.765-1.282c-0.329,0-0.887,0.176-0.887,1.368l0.002,0.403c0.002,0.353,0.004,0.855-0.002,2.902v0.062
			l-1.138,0.004V50.477L18.61,50.477z"/>
		<g>
			<path d="M8.635,62.886v-6.38h0.895v1.769l0.183-0.12c0.117-0.078,0.428-0.266,0.754-0.305c0.101-0.012,0.202-0.018,0.295-0.018
				c0.891,0,1.445,0.485,1.489,1.3c0.008,0.174,0.01,0.528,0,1.054v0.058v2.641h-0.918v-3.507c0-0.411-0.464-0.598-0.894-0.598
				c-0.328,0-0.753,0.113-0.871,0.437c-0.054,0.151-0.06,0.454-0.06,0.758v2.91c-0.162,0.002-0.468,0.002-0.695,0.002
				C8.747,62.886,8.683,62.886,8.635,62.886z"/>
		</g>
		<g>
			<path d="M15.32,63.064c-0.254,0-0.495-0.017-0.739-0.049c-0.701-0.096-1.118-0.453-1.118-0.958v-3.057
				c0-0.319,0.172-0.539,0.258-0.644l0.022-0.028c0.234-0.304,0.834-0.493,1.562-0.493s1.365,0.191,1.587,0.476
				c0.15,0.191,0.289,0.438,0.289,0.952v1.662l-2.823-0.002v0.835c0,0.283,0.249,0.41,0.464,0.436
				c0.241,0.027,0.483,0.041,0.694,0.041c0.28,0,0.515-0.025,0.691-0.072l0.025-0.008c0.128-0.033,0.18-0.045,0.258-0.075
				c0.093,0.16,0.295,0.504,0.43,0.707c-0.236,0.116-0.577,0.21-0.927,0.243C15.755,63.054,15.535,63.064,15.32,63.064z
				 M15.27,58.733c-0.163,0-0.457,0.006-0.621,0.048c-0.243,0.06-0.252,0.297-0.258,0.423l-0.004,0.852h1.901v-0.859
				c0-0.173-0.083-0.365-0.279-0.413C15.874,58.749,15.53,58.733,15.27,58.733z"/>
		</g>
		<g>
			<path d="M6.337,63.064c-0.369,0-0.865-0.079-1.131-0.456c-0.157-0.227-0.181-0.492-0.181-0.749v-2.916H4.267v-0.91h0.759v-1.111
				H5.9v1.111h1.308v0.91H5.9c0,0-0.002,0.761-0.004,1.098c0,0.46-0.002,0.936,0,1.408v0.034c-0.002,0.188-0.004,0.47,0.192,0.606
				c0.12,0.083,0.261,0.126,0.425,0.126c0.259,0,0.526-0.107,0.767-0.205c0.155,0.242,0.358,0.557,0.458,0.717
				C7.323,62.936,6.799,63.064,6.337,63.064z"/>
		</g>
	</g>
	<path fill="#F8E772" d="M28.726,36.316c-0.05,0-1.77-0.002-3.516-0.002l0,0c-0.002,0-0.006,0-0.009,0s-0.006,0-0.01,0l0,0
		c-1.744,0-3.464,0.002-3.516,0.002c-0.196,0-0.447,0.209-0.447,0.433c0,1.118,0,2.91,0,3.052c0,1.209,0.13,2.029,0.822,2.576
		c0.419,0.33,2.464,1.194,2.464,1.194s0.43,0.215,0.677,0.224v0.002c0.003,0,0.007,0,0.01,0s0.007,0,0.009,0v-0.002
		c0.249-0.009,0.68-0.224,0.68-0.224s2.043-0.864,2.463-1.194c0.692-0.547,0.821-1.367,0.821-2.576c0-0.142,0-1.934,0-3.052
		C29.174,36.525,28.923,36.316,28.726,36.316z"/>
	<g>
		<path d="M26.95,40.661c0,0.232-0.048,0.44-0.142,0.622c-0.092,0.185-0.225,0.341-0.396,0.468c-0.171,0.123-0.378,0.218-0.616,0.283
			s-0.5,0.099-0.782,0.099c-0.178,0-0.345-0.014-0.503-0.039c-0.161-0.025-0.302-0.058-0.429-0.098
			c-0.126-0.041-0.234-0.078-0.321-0.122s-0.152-0.083-0.191-0.114c-0.04-0.035-0.069-0.081-0.088-0.144
			c-0.02-0.06-0.03-0.146-0.03-0.248c0-0.065,0.005-0.121,0.013-0.165c0.008-0.043,0.018-0.077,0.029-0.105
			c0.011-0.028,0.026-0.047,0.047-0.058c0.019-0.012,0.04-0.018,0.066-0.018c0.041,0,0.101,0.022,0.18,0.065
			c0.077,0.047,0.175,0.1,0.29,0.151c0.114,0.054,0.251,0.107,0.409,0.151c0.156,0.047,0.337,0.066,0.543,0.066
			c0.152,0,0.292-0.014,0.417-0.042c0.123-0.032,0.233-0.076,0.322-0.138c0.093-0.059,0.164-0.133,0.214-0.225
			c0.048-0.093,0.071-0.201,0.071-0.328c0-0.128-0.036-0.235-0.104-0.323c-0.072-0.09-0.168-0.17-0.284-0.235
			c-0.117-0.067-0.248-0.129-0.395-0.182c-0.146-0.052-0.297-0.105-0.453-0.167c-0.155-0.057-0.306-0.121-0.455-0.195
			c-0.147-0.072-0.281-0.159-0.397-0.266c-0.119-0.107-0.213-0.229-0.282-0.376c-0.071-0.147-0.108-0.323-0.108-0.525
			c0-0.18,0.037-0.353,0.114-0.518c0.073-0.165,0.186-0.31,0.338-0.434c0.147-0.122,0.336-0.222,0.561-0.297s0.487-0.114,0.788-0.114
			c0.132,0,0.262,0.012,0.394,0.031c0.132,0.021,0.251,0.047,0.357,0.077c0.108,0.031,0.196,0.064,0.272,0.102
			c0.075,0.032,0.131,0.066,0.171,0.092c0.038,0.027,0.062,0.052,0.075,0.071c0.013,0.021,0.021,0.044,0.027,0.07
			c0.006,0.025,0.012,0.055,0.017,0.092c0.006,0.04,0.009,0.086,0.009,0.139c0,0.057-0.003,0.108-0.009,0.151
			c-0.005,0.042-0.015,0.077-0.027,0.105c-0.014,0.024-0.028,0.043-0.046,0.057c-0.019,0.012-0.038,0.018-0.062,0.018
			c-0.032,0-0.079-0.02-0.142-0.054c-0.063-0.039-0.144-0.08-0.242-0.122c-0.099-0.043-0.215-0.083-0.349-0.12
			c-0.132-0.037-0.285-0.053-0.457-0.053c-0.155,0-0.29,0.015-0.405,0.045c-0.12,0.033-0.215,0.079-0.289,0.138
			c-0.075,0.062-0.131,0.129-0.17,0.213c-0.04,0.08-0.059,0.167-0.059,0.265C24.442,39.675,26.95,39.184,26.95,40.661z"/>
	</g>
</svg>
