<svg version="1.1" width="650px" height="220px" viewBox="0 0 650 220" baseProfile="full" xmlns="http://www.w3.org/2000/svg" xmlns:xlink="http://www.w3.org/1999/xlink" xmlns:ev="http://www.w3.org/2001/xml-events">
<g>
	<g>
		<path fill="#414142" d="M25,195v-60h20.668c8.699,0,15.775,7.005,15.775,15.693c0,3.964-1.482,7.719-4.118,10.607
			c4.941,3.379,7.942,9.222,7.942,15.272c0,10.032-8.208,18.427-18.297,18.427H25z M46.971,187c5.435,0,9.856-4.532,9.856-9.96
			c0-5.471-4.421-10.04-9.856-10.04H34v20H46.971z M45.587,159c4.02,0,7.415-3.486,7.415-7.5s-3.396-7.5-7.415-7.5H34v15H45.587z"/>
		<path fill="#EAE9EA" d="M46.062,137.062c7.975,0,14.091,5.792,14.091,13.756c0,4.307-1.913,8.113-5.005,10.795
			c5.208,2.844,8.767,8.757,8.767,15.177c0,9.265-7.669,17.21-16.945,17.21C46.482,194,27,194,27,194v-57h19 M32,160h13.587
			c4.801,0,8.788-4.206,8.788-9c0-4.795-3.987-9-8.788-9C44.855,142,32,142,32,142V160 M32,188h14.971
			c6.184,0,11.229-4.783,11.229-10.96c0-6.175-5.045-11.04-11.229-11.04C46.238,166,32,166,32,166V188 M46,134H26.465H24v2.246
			v56.885V196h2.465h20.505c10.846,0,19.67-8.84,19.67-19.629c0-5.998-2.743-11.624-7.332-15.307
			c2.257-2.962,3.673-6.625,3.673-10.42C62.982,141.199,55,134,46,134L46,134z M35,145h10.587c3.275,0,6.042,2.73,6.042,6
			s-2.767,6-6.042,6H35V145L35,145z M35,168h11.971c4.678,0,8.483,3.826,8.483,8.539c0,4.67-3.806,8.461-8.483,8.461H35V168L35,168z
			"/>
	</g>
	<g>
		<path fill="#414142" d="M104.632,189.16c-3.75,3.932-8.863,6.155-14.277,6.155c-11.166,0-20.248-9.547-20.248-21.282
			c0-11.734,9.085-21.282,20.251-21.282c5.413,0,10.524,2.225,14.273,6.156l6.369-7.831v45.914L104.632,189.16z M90.766,161.185
			c-6.713,0-11.972,5.644-11.972,12.849s5.259,12.849,11.972,12.849c6.622,0,11.809-5.644,11.809-12.849
			S97.388,161.185,90.766,161.185z"/>
		<path fill="#EAE9EA" d="M90.359,154.124c5.777,0,11.082,2.682,14.5,6.907l5.142-6.095v38.194l-5.142-6.096
			c-3.418,4.227-8.633,6.908-14.411,6.908c-10.496,0-18.922-8.858-18.922-19.91S79.862,154.124,90.359,154.124 M90.766,188.254
			c7.486,0,13.182-6.338,13.182-14.221s-5.696-14.221-13.182-14.221s-13.345,6.338-13.345,14.221S83.28,188.254,90.766,188.254
			 M113,147.217l-5.18,5.986l-3.144,3.673c-3.88-3.526-8.966-5.498-14.241-5.498c-5.836,0-11.332,2.368-15.406,6.668
			c-4.034,4.257-6.274,9.935-6.274,15.987s2.211,11.73,6.246,15.988c4.074,4.3,9.527,6.667,15.363,6.667
			c5.274,0,10.282-1.972,14.162-5.497l3.295,3.673l5.179,5.986v-7.72v-38.194V147.217L113,147.217z M90.766,185.509
			c-5.943,0-10.599-5.041-10.599-11.476c0-6.436,4.655-11.476,10.599-11.476c5.853,0,10.436,5.04,10.436,11.476
			C101.202,180.468,96.618,185.509,90.766,185.509L90.766,185.509z"/>
	</g>
	<g>
		<path fill="#414142" d="M141.65,195.479c-8.681,0-13.65-5.565-13.65-15.27V162h-9v-8h9v-14h9v14h14v8h-14v18.209
			c0,4.849,1.54,6.916,5.825,6.916c2.393,0,6.173-0.86,7.953-1.601l1.051-0.468l4.084,7.289l-1.451,0.592
			C152.604,193.701,147.625,195.479,141.65,195.479z"/>
		<path fill="#EAE9EA" d="M135,142v13h15v6h-15v19.209c0,5.771,2.629,8.289,7.511,8.289c2.604,0,6.685-0.894,8.638-1.706
			l2.763,4.876c-2.767,1.138-7.487,2.438-12.451,2.438c-7.648,0-12.46-4.551-12.46-13.896V161h-9v-6h9v-13H135 M138,139h-2.95
			h-5.696H126v2.122V153h-6.003H117v1.937v5.606V164h2.997H126v16.209c0,10.576,5.783,16.642,15.336,16.642
			c6.221,0,11.54-1.849,13.474-2.644l2.952-1.183l-1.492-2.708l-2.737-4.876l-1.188-2.118l-2.242,0.935
			c-1.629,0.678-5.264,1.496-7.466,1.496c-3.002,0-4.636-0.907-4.636-5.544V164h11.29H152v-3.457v-5.606V153h-2.71H138v-11.878V139
			L138,139z"/>
	</g>
	<g>
		<path fill="#414142" d="M180.937,195.479c-8.68,0-13.937-5.565-13.937-15.27V162h-9v-8h9v-14h9v14h14v8h-14v18.209
			c0,4.849,1.826,6.916,6.111,6.916c2.394,0,6.317-0.86,8.097-1.601l1.426-0.594l2.14,7.541l-1.272,0.466
			C189.749,194.069,186.184,195.479,180.937,195.479z"/>
		<path fill="#EAE9EA" d="M174,142v13h15v6h-15v19.209c0,5.771,2.916,8.289,7.799,8.289c2.604,0,6.828-0.894,8.78-1.706l1.461,4.876
			c-2.767,1.138-5.864,2.438-10.829,2.438c-7.648,0-12.212-4.551-12.212-13.896V161h-10v-6h10v-13H174 M177,139h-2.375h-5.696H166
			v2.122V153h-6.429H156v1.937v5.606V164h3.571H166v16.209c0,10.576,5.57,16.642,15.123,16.642c5.518,0,9.129-1.465,11.994-2.644
			l2.289-0.932l-0.657-2.357l-1.378-4.876l-0.841-2.972l-2.852,1.187c-1.628,0.678-5.553,1.496-7.754,1.496
			c-3.002,0-4.925-0.907-4.925-5.544V164h11.864H191v-3.457v-5.606V153h-2.136H177v-11.878V139L177,139z"/>
	</g>
	<g>
		<polygon fill="#414142" points="198,195 198,187 210,187 210,144 198,144 198,135 218,135 218,187 231,187 231,195 		"/>
		<path fill="#EAE9EA" d="M217,137v51h12v6h-30v-6h12v-46h-12v-5H217 M220,134h-3.105h-17.901H196v2.246v5.282V145h2.994H209v40
			h-10.006H196v2.848v5.283V196h2.994H229.1h2.9v-2.869v-5.283V185h-2.9H220v-48.754V134L220,134z"/>
	</g>
	<g>
		<path fill="#414142" d="M255.331,195.315c-12.751,0-22.366-9.149-22.366-21.282s9.51-21.282,22.122-21.282
			c6.25,0,12.142,2.826,15.762,7.558c3.283,4.292,4.282,9.949,2.812,15.369L273.387,177H241.74c0.835,6,7.288,10.191,13.347,10.191
			c5.585,0,10.192-2.044,14.083-5.93l1.133-1.209l4.738,6.438l-0.848,0.812C268.841,192.558,262.318,195.315,255.331,195.315z
			 M265.265,168c-1.325-4-6.962-7.006-10.749-7.006c-1.495,0-8.608,1.006-11.556,7.006H265.265z"/>
		<path fill="#EAE9EA" d="M255.086,154.119c10.822,0,20.423,9.881,17.25,20.881h-32.059c0.081,8,7.161,13.25,14.809,13.25
			c5.125,0,10.415-1.542,15.054-6.174l3.091,4.227c-4.801,4.714-10.985,7.64-17.901,7.64c-12.124,0-20.994-8.86-20.994-19.911
			C234.337,162.979,242.962,154.119,255.086,154.119 M241,170h25.885c-0.57-7-7.161-10.154-12.368-10.154
			c-3.905,0-11.187,2.402-13.465,9.953 M255.086,151.378c-13.394,0-23.495,9.74-23.495,22.655c0,6.148,2.412,11.858,6.792,16.077
			c4.403,4.242,10.422,6.578,16.948,6.578c7.355,0,14.21-2.913,19.825-8.425l1.695-1.664l-1.402-1.917l-3.092-4.226l-1.89-2.584
			l-2.266,2.262c-3.622,3.616-7.91,5.496-13.114,5.496c-4.958,0-10.208-2.631-11.668-7.631h28.917h2.1l0.55-2.15
			c1.584-5.84,0.502-11.674-3.047-16.313C268.061,154.466,261.761,151.378,255.086,151.378L255.086,151.378z M245.344,167
			c3.337,0,8.004-4.26,9.173-4.26c2.844,0,6.877,1.26,8.7,4.26H245.344L245.344,167z"/>
	</g>
	<g>
		<path fill="#414142" d="M321.817,196.874c-10.282,0-20.817-5.802-20.817-18.764V177h9v1.11c0,6.228,4.791,10.411,12.097,10.411
			c6.233,0,10.204-3.385,10.204-8.622c0-5.408-5.826-7.666-12.537-10.281c-8.288-3.229-17.696-6.888-17.696-17.837
			c0-8.032,6.355-16.163,18.316-16.163c11.856,0,19.616,6.919,19.616,17.626V155h-8v-1.756c0-5.893-4.364-9.272-11.403-9.272
			c-4.726,0-9.938,2.051-9.938,7.81c0,4.787,5.435,6.938,11.824,9.431c8.146,3.177,18.161,7.131,18.161,18.688
			C340.644,189.735,332.655,196.874,321.817,196.874z"/>
		<path fill="#EAE9EA" d="M320.27,137.369c9.764,0,18.145,4.631,18.145,16.631h-5.695c0-7-4.883-11.023-12.45-11.023
			c-5.615,0-11.148,2.493-11.148,8.994c0,12.758,30.188,8.763,30.188,28.022c0,9.021-7.079,16-17.332,16
			c-9.927,0-19.284-5.993-19.284-16.993h5.696c0,7,5.696,11.339,13.588,11.339c7.404,0,11.636-4.61,11.636-10.218
			c0-13.734-30.188-9.43-30.188-28.041C303.426,144.199,309.692,137.369,320.27,137.369 M320.189,134.245
			c-12.86,0-19.549,8.822-19.549,17.536c0,11.888,10.308,15.896,18.576,19.116c7.211,2.811,11.642,4.748,11.642,9.002
			c0,4.471-3.47,7.249-8.953,7.249c-6.586,0-10.906-3.548-10.906-9.038V176h-2.61h-5.696H300v2.11
			c0,6.299,2.375,11.562,6.917,15.222c3.934,3.17,9.279,4.915,15.075,4.915c11.634,0,20.071-7.716,20.071-18.348
			c0-12.494-10.625-16.638-19.16-19.967c-6.84-2.667-11.033-4.488-11.033-8.151c0-5.973,6.444-6.437,8.415-6.437
			c4.426,0,9.715,1.37,9.715,7.899V157h2.72h5.695H341v-3.756C341,141.703,332.881,134.245,320.189,134.245L320.189,134.245z"/>
	</g>
	<g>
		<polygon fill="#414142" points="379.23,197 371.475,176.369 363.719,197 359.012,197 345.076,155 353.853,155 361.496,179.71 
			367.082,164.531 363.561,155 372.35,155 381.451,179.652 389.096,155 397.872,155 383.936,197 		"/>
		<path fill="#EAE9EA" d="M395.941,156.937L382.947,196h-2.767l-8.706-23.159L362.768,196h-2.767l-13.02-39h5.859l8.544,27.296
			l7.16-19.296l-3.011-8h5.858l10.172,27.549L390.107,157H396 M399.777,154h-3.811h-5.859h-2.023l-0.599,1.807l-6.147,19.759
			l-7.37-19.866L373.306,154h-1.913h-5.858h-3.946l1.371,3.574l2.658,7.111l-4.009,10.843l-6.146-19.706l-0.6-1.822h-2.022h-5.859
			h-3.811l1.206,3.49l13.02,39.32l0.626,2.189h1.979h2.767h1.901l0.669-2.156l6.137-16.512l6.136,16.606l0.669,2.062h1.901h2.767
			h1.978l0.626-2.253l13.02-39.069L399.777,154L399.777,154z"/>
	</g>
	<g>
		<path fill="#414142" d="M422.923,196.874c-12.751,0-22.366-9.149-22.366-21.282s9.511-21.283,22.122-21.283
			c6.25,0,12.143,2.826,15.763,7.559c3.283,4.292,4.282,10.171,2.812,15.589L440.979,179h-31.647c0.836,6,7.288,9.97,13.347,9.97
			c5.586,0,10.192-2.153,14.083-6.038l1.133-1.265l4.738,6.409l-0.848,0.799C436.433,194.13,429.91,196.874,422.923,196.874z
			 M432.857,170c-1.325-5-6.963-7.005-10.749-7.005c-1.494,0-8.606,1.005-11.556,7.005H432.857z"/>
		<path fill="#EAE9EA" d="M422.679,155.898c10.822,0,20.424,10.102,17.25,21.102h-32.06c0.082,8,7.161,13.029,14.81,13.029
			c5.126,0,10.415-1.652,15.054-6.284l3.091,4.171c-4.8,4.713-10.984,7.612-17.9,7.612c-12.124,0-20.993-8.763-20.993-19.815
			C401.93,164.661,410.555,155.898,422.679,155.898 M408,172h26.477c-0.569-7-7.16-10.124-12.368-10.124
			c-3.905,0-11.431,1.7-13.71,9.938 M422.679,152.937c-13.395,0-23.495,9.739-23.495,22.655c0,6.148,2.412,11.858,6.791,16.077
			c4.403,4.242,10.423,6.578,16.948,6.578c7.354,0,14.21-2.913,19.825-8.425l1.694-1.664l-1.402-1.916l-3.092-4.227l-1.892-2.584
			l-2.265,2.263c-3.62,3.615-7.91,5.716-13.113,5.716c-4.957,0-10.208-2.41-11.668-7.41h28.918h2.101l0.55-2.371
			c1.584-5.84,0.502-11.785-3.047-16.424C435.654,156.135,429.354,152.937,422.679,152.937L422.679,152.937z M412.938,169
			c1.392,0,2.849-4.248,9.171-4.26c2.845,0,6.878,1.26,8.701,4.26H412.938L412.938,169z"/>
	</g>
	<g>
		<path fill="#414142" d="M471.336,196.874c-12.751,0-22.367-9.149-22.367-21.282s9.511-21.283,22.123-21.283
			c6.249,0,12.142,2.826,15.762,7.559c3.283,4.292,4.282,10.17,2.812,15.589L489.392,179h-31.646c0.836,6,7.288,9.97,13.347,9.97
			c5.585,0,10.191-2.153,14.083-6.038l1.133-1.265l4.738,6.41l-0.848,0.799C484.845,194.13,478.322,196.874,471.336,196.874z
			 M481.271,170c-1.326-5-6.963-7.005-10.749-7.005c-1.495,0-8.607,1.005-11.556,7.005H481.271z"/>
		<path fill="#EAE9EA" d="M471.092,155.898c10.822,0,20.423,10.102,17.249,21.102h-32.059c0.082,8,7.16,13.029,14.81,13.029
			c5.125,0,10.414-1.652,15.053-6.284l3.092,4.171c-4.801,4.713-10.984,7.612-17.9,7.612c-12.124,0-20.994-8.763-20.994-19.815
			C450.342,164.661,458.968,155.898,471.092,155.898 M457,172h25.89c-0.569-7-7.161-10.124-12.368-10.124
			c-3.905,0-11.301,1.7-13.58,9.938 M471.092,152.937c-13.395,0-23.495,9.739-23.495,22.655c0,6.148,2.411,11.858,6.791,16.077
			c4.403,4.242,10.423,6.578,16.948,6.578c7.354,0,14.209-2.913,19.824-8.425l1.695-1.664l-1.402-1.916l-3.092-4.227l-1.891-2.584
			l-2.266,2.263c-3.621,3.615-7.91,5.716-13.113,5.716c-4.958,0-10.208-2.41-11.668-7.41h28.917h2.101l0.55-2.371
			c1.584-5.84,0.502-11.785-3.047-16.425C484.066,156.135,477.766,152.937,471.092,152.937L471.092,152.937z M461.35,169
			c3.303,0,7.035-4.26,9.172-4.26c2.845,0,6.877,1.26,8.7,4.26H461.35L461.35,169z"/>
	</g>
	<g>
		<path fill="#414142" d="M498,214v-61.366l6.439,7.831c3.75-3.932,8.9-6.156,14.312-6.156c11.164,0,20.266,9.548,20.266,21.283
			c0,11.734-8.86,21.282-20.026,21.282c-4.511,0-8.991-1.484-11.991-4.232V214H498z M518.375,162.743
			c-6.621,0-11.809,5.644-11.809,12.849c0,7.204,5.188,12.849,11.809,12.849c6.713,0,11.972-5.645,11.972-12.849
			C530.347,168.387,525.088,162.743,518.375,162.743z"/>
		<path fill="#EAE9EA" d="M518.782,155.682c10.497,0,18.878,8.858,18.878,19.91c0,11.053-8.478,19.91-18.975,19.91
			c-5.37,0-9.686-2.276-13.686-6.014V212h-5v-55.506l4.712,6.095C508.13,158.364,513.005,155.682,518.782,155.682 M518.375,189.812
			c7.486,0,13.345-6.338,13.345-14.221s-5.858-14.222-13.345-14.222s-13.182,6.339-13.182,14.222S510.889,189.812,518.375,189.812
			 M497,148.773v7.721v55.26V215h2.498h5.695H508v-3.246v-16.492c3,1.949,6.914,2.985,10.812,2.985
			c5.838,0,11.279-2.367,15.354-6.667c4.033-4.258,6.248-9.936,6.248-15.988s-2.226-11.73-6.26-15.988
			c-4.074-4.3-9.534-6.667-15.37-6.667c-5.272,0-10.285,1.972-14.165,5.497l-2.868-3.673L497,148.773L497,148.773z M518.375,187.067
			c-5.852,0-10.436-5.041-10.436-11.476c0-6.436,4.584-11.476,10.436-11.476c5.943,0,10.599,5.04,10.599,11.476
			C528.974,182.026,524.318,187.067,518.375,187.067L518.375,187.067z"/>
	</g>
	<g>
		<path fill="#414142" d="M567.475,196.874c-12.751,0-22.366-9.149-22.366-21.282s9.511-21.283,22.122-21.283
			c6.249,0,12.142,2.826,15.762,7.558c3.283,4.293,4.283,10.171,2.813,15.59L585.53,179h-31.646c0.836,6,7.288,9.97,13.347,9.97
			c5.586,0,10.192-2.153,14.083-6.038l1.133-1.265l4.739,6.409l-0.848,0.8C580.984,194.13,574.462,196.874,567.475,196.874z
			 M577.409,170c-1.325-5-6.962-7.005-10.748-7.005c-1.495,0-8.608,1.005-11.557,7.005H577.409z"/>
		<path fill="#EAE9EA" d="M567.23,155.898c10.822,0,20.423,10.102,17.25,21.102h-32.06c0.081,8,7.161,13.029,14.81,13.029
			c5.126,0,10.415-1.652,15.053-6.284l3.093,4.171c-4.802,4.713-10.985,7.612-17.901,7.612c-12.124,0-20.993-8.763-20.993-19.815
			C546.481,164.661,555.106,155.898,567.23,155.898 M553,172h26.029c-0.57-7-7.161-10.124-12.368-10.124
			c-3.905,0-11.353,1.7-13.631,9.938 M567.23,152.937c-13.395,0-23.495,9.739-23.495,22.655c0,6.148,2.412,11.858,6.792,16.077
			c4.403,4.242,10.422,6.578,16.947,6.578c7.354,0,14.21-2.913,19.824-8.425l1.695-1.664l-1.402-1.917l-3.093-4.226l-1.891-2.584
			l-2.265,2.263c-3.621,3.615-7.91,5.716-13.113,5.716c-4.958,0-10.208-2.41-11.668-7.41h28.918h2.1l0.55-2.371
			c1.584-5.84,0.502-11.785-3.047-16.425C580.205,156.135,573.904,152.937,567.23,152.937L567.23,152.937z M557.488,169
			c2.622,0,6.283-4.205,9.173-4.26c2.844,0,6.877,1.26,8.699,4.26H557.488L557.488,169z"/>
	</g>
	<g>
		<path fill="#414142" d="M586.402,196L599,188.491v-25.8L586.402,155H607v3.236c3-2.478,6.457-3.928,10.369-3.928
			c2.844,0,5.574,0.77,8.03,2.224l0.601,0.398v21.741l-8.734-15.925c-0.152-0.004-0.166-0.004-0.307-0.004
			c-4.768,0-9.959,4.313-9.959,10.086v15.662L618.603,196H586.402z"/>
		<path fill="#EAE9EA" d="M617.237,155.682c2.685,0,5.763,0.731,7.763,2.032v15.603l-6.693-11.864
			c-0.406-0.082-1.16-0.082-1.567-0.082c-5.777,0-11.739,5.12-11.739,11.459v16.415l8.894,5.756h-22.782l8.889-5.756v-27.305
			L591.111,157H605v4.858C608,157.714,612.843,155.682,617.237,155.682 M617.182,152.937c-3.264,0-6.182,0.933-9.182,2.59V154
			h-2.649h-14.239h-9.417l7.987,4.936l7.318,4.51v24.292l-7.318,4.919L581.694,198h9.417h22.782h9.417l-7.99-5.344l-7.32-4.919
			v-14.908c0-4.841,4.389-8.493,8.412-8.703l5.601,10.511l4.987,9.392v-10.712v-15.603v-1.565l-1.182-0.798
			C623.15,153.771,620.273,152.937,617.182,152.937L617.182,152.937z"/>
	</g>
</g>
<g>
	<g>
		<path fill="#FFFFFF" d="M308.373,68.402V51.283h9.651c1.351,0,2.914,0.417,3.999,0.956c1.084,0.541,2.318,1.635,3.252,2.986
			c0.829,1.199,1.448,2.992,1.448,4.72c0,1.281-0.271,2.517-0.805,3.671l-0.04,0.078c-0.04,0.074-0.077,0.148-0.11,0.225
			c-0.224,0.496-0.336,1.024-0.336,1.578c0,0.002,0,0.004,0,0.006c0,0.148,0.014,0.293,0.033,0.436
			c0.018,0.111,0.041,0.222,0.071,0.33c0.005,0.019,0.009,0.035,0.013,0.053c0.232,0.786,0.815,1.521,1.803,2.272
			c0.315-0.312,0.609-0.642,0.887-0.979c0-0.01,0-0.018,0-0.026c1.208-1.472,2.048-3.181,2.471-4.995c0,0.009,0,0.018,0,0.025
			c0.009-0.04,0.016-0.08,0.024-0.121c0.028-0.13,0.056-0.26,0.08-0.391c0.057-0.296,0.104-0.593,0.139-0.893
			c0.008-0.076,0.015-0.154,0.021-0.231c0.002-0.021,0.002-0.043,0.004-0.064c0.028-0.327,0.05-0.656,0.051-0.987
			c0,0,0-0.001,0-0.002c0-0.003,0-0.006,0-0.009c0-1.782-0.439-3.554-1.307-5.327c-0.104-0.215-0.219-0.424-0.336-0.632
			c-0.113-0.198-0.233-0.394-0.357-0.587c-0.918-1.424-2.139-2.658-3.594-3.612l-1.221-0.799l0.079-0.084v0.024l0.92-0.979
			c1.758-1.873,2.727-4.371,2.727-7.037c0-0.003-0.001-0.007-0.001-0.011c0-0.005,0.001-0.009,0.001-0.014
			c0-0.378-0.024-0.751-0.065-1.118c-0.002-0.012-0.004-0.023-0.006-0.035c-0.042-0.365-0.105-0.725-0.186-1.079
			c-0.002-0.009-0.005-0.018-0.008-0.026c-1.059-4.607-5.246-8.166-10.091-8.166h-12.885v0.025v3.675v2.448v3.062v2.449v29.979
			v0.024h13.498c-0.627-1.14-1.062-2.374-1.292-3.699H308.373z M308.373,42.099v-2.449v-3.062v-2.448h8.646h0.505
			c1.913,0.14,3.609,1.061,4.76,2.448h-0.022c0.725,0.865,1.233,1.913,1.451,3.061h0.004c0.075,0.4,0.119,0.812,0.119,1.234
			c0,3.695-3.058,6.702-6.816,6.702h-8.646V42.099z"/>
		<path fill="#FFFFFF" d="M328.579,34.325v-2.068l0.75-0.271c3.95-1.256,6.502-4.887,6.502-9.036c0-5.227-4.245-9.478-9.473-9.478
			c-5.227,0-9.466,4.251-9.466,9.478c0,1.859,0.55,3.617,1.51,5.107C322.73,28.333,326.475,30.776,328.579,34.325z M326.343,17.146
			c3.202,0,5.807,2.604,5.807,5.805c0,3.203-2.604,5.808-5.807,5.808c-3.201,0-5.806-2.604-5.806-5.808
			C320.537,19.75,323.142,17.146,326.343,17.146z"/>
		<path fill="#FFFFFF" d="M317.019,36.587h-6.197v3.062h10.375C320.65,37.88,318.985,36.587,317.019,36.587z"/>
		<path fill="#FFFFFF" d="M330.327,39.649h19.684v-3.062h-20.372C329.983,37.562,330.224,38.584,330.327,39.649z"/>
		<rect x="295.514" y="36.587" fill="#FFFFFF" width="6.735" height="3.062"/>
		<path fill="#FFFFFF" d="M328.332,48.915c0.003-0.354,0.005-0.697,0.007-1.033c-0.146,0.223-0.291,0.445-0.451,0.659
			C328.039,48.662,328.185,48.788,328.332,48.915z"/>
		<path fill="#FFFFFF" d="M340.411,65.366h3.87c-0.602-6.423-5.944-9.584-11.612-10.034c0.408,1.164,0.662,2.33,0.758,3.487
			C336.753,59.499,339.834,61.781,340.411,65.366z"/>
		<path fill="#FFFFFF" d="M324.292,77.821v6.527h0.612v1.224c0,3.211,1.625,4.856,3.377,5.7c-0.061-2.002-0.082-5.466-0.075-11.547
			C326.887,79.157,325.558,78.536,324.292,77.821z"/>
		<path fill="#FFFFFF" d="M351.847,69.362c1.068,1.41,2.384,3.123,2.717,3.495l0.357,0.399l-0.051,0.533
			c-0.606,6.275-3.937,10.713-7.366,13.686c-0.148,2.824-1.074,5.323-2.615,7.353c5.719-3.319,10.887-8.349,13.861-19.009
			c0.27-0.973,1.325-1.369,4.277-2.256c0.176-0.053,0.375-0.112,0.568-0.172c-1.064-3.086-2.773-10.049-3.715-14.007L351.847,69.362
			z"/>
		<path fill="#FFFFFF" d="M332.618,74.115c-0.659-0.286-1.304-0.569-1.933-0.853c-0.862-0.389-1.688-0.781-2.46-1.192
			c-0.252-0.134-0.496-0.271-0.736-0.407c-0.019-0.012-0.037-0.021-0.055-0.031c-0.25-0.145-0.492-0.293-0.726-0.444
			c-0.28-0.181-0.538-0.366-0.786-0.555c-0.124-0.095-0.238-0.19-0.354-0.286c-0.105-0.087-0.209-0.174-0.309-0.262
			c-0.144-0.129-0.282-0.26-0.412-0.393c-0.047-0.047-0.092-0.096-0.137-0.143c-0.147-0.156-0.29-0.314-0.418-0.475
			c-0.872-1.086-1.311-2.27-1.311-3.573c0-0.905,0.184-1.772,0.547-2.579c0.053-0.121,0.114-0.246,0.182-0.371
			c0.374-0.82,0.563-1.696,0.563-2.606c0-0.844-0.166-1.667-0.485-2.431c-0.975,0.665-1.812,1.454-2.499,2.334
			c-0.038,0.049-0.075,0.098-0.113,0.147c-0.169,0.226-0.333,0.454-0.482,0.69c0,0,0,0,0,0.001c-0.15,0.237-0.287,0.48-0.416,0.728
			c-0.029,0.057-0.058,0.113-0.087,0.172c-0.123,0.246-0.239,0.496-0.341,0.752c0,0.002-0.001,0.003-0.002,0.004
			c-0.102,0.257-0.19,0.52-0.27,0.784c-0.02,0.063-0.038,0.128-0.056,0.191c-0.075,0.264-0.142,0.53-0.193,0.8
			c-0.001,0.004-0.002,0.006-0.002,0.009c-0.053,0.271-0.089,0.548-0.119,0.825c-0.007,0.068-0.014,0.138-0.02,0.207
			c-0.023,0.279-0.041,0.561-0.041,0.845c0,0.422,0.022,0.845,0.069,1.292c0.21,1.994,0.924,3.689,2.181,5.176
			c1.253,1.481,2.93,2.623,4.784,3.6c0,0,0,0,0.001,0c1.649,0.869,3.438,1.605,5.201,2.33c5.046,2.073,9.813,4.031,9.813,8.834
			c0,0.299-0.016,0.591-0.046,0.874c-0.001,0.005-0.002,0.009-0.002,0.014c-0.03,0.278-0.075,0.552-0.131,0.815
			c-0.332,1.547-1.134,2.822-2.325,3.77c-0.575,0.455-1.239,0.835-1.985,1.133c-0.005,0.001-0.011,0.002-0.015,0.004
			c-0.244,0.098-0.496,0.186-0.758,0.264c-0.027,0.008-0.059,0.014-0.088,0.022c-0.24,0.069-0.482,0.134-0.737,0.188
			c-0.069,0.016-0.143,0.025-0.212,0.038c-0.219,0.043-0.438,0.085-0.668,0.116c-0.139,0.02-0.284,0.029-0.426,0.043
			c-0.169,0.018-0.334,0.04-0.508,0.052c-0.322,0.021-0.652,0.032-0.99,0.032c-0.359,0-0.72-0.021-1.08-0.051l0,0
			c-0.915-0.077-1.816-0.256-2.677-0.535c-0.825-0.268-1.609-0.631-2.325-1.093c-0.008-0.005-0.016-0.011-0.023-0.015
			c-0.716-0.467-1.363-1.032-1.911-1.701c-0.946-1.156-1.604-2.615-1.807-4.409h-0.643h-3.218c0.029,0.421,0.077,0.821,0.134,1.212
			c0.014,0.094,0.029,0.189,0.044,0.282c0.063,0.382,0.136,0.753,0.225,1.105c0,0.001,0,0.001,0.001,0.003
			c0.09,0.355,0.197,0.691,0.312,1.018c0.026,0.073,0.051,0.146,0.078,0.217c1.735,4.648,5.867,6.385,9.319,6.992
			c0.003,0,0.005,0,0.007,0.001c0.213,0.037,0.422,0.069,0.629,0.1c0.023,0.003,0.047,0.007,0.07,0.01
			c0.205,0.028,0.408,0.054,0.605,0.075c0.004,0,0.006,0,0.01,0.001c0.207,0.022,0.409,0.04,0.607,0.056
			c0.016,0.002,0.031,0.002,0.049,0.004c0.166,0.012,0.328,0.021,0.486,0.03c0.048,0.003,0.094,0.005,0.142,0.007
			c0.13,0.006,0.256,0.01,0.379,0.014c0.044,0.002,0.089,0.003,0.132,0.004c0.158,0.003,0.312,0.005,0.455,0.005
			c0.301,0,0.604-0.011,0.905-0.028c0.046-0.002,0.093-0.004,0.14-0.008c0.289-0.018,0.58-0.046,0.869-0.08
			c0.051-0.007,0.104-0.014,0.154-0.021c0.295-0.038,0.588-0.083,0.882-0.138c0.027-0.006,0.055-0.012,0.083-0.018
			c0.301-0.059,0.6-0.125,0.895-0.2c0.012-0.003,0.023-0.005,0.034-0.009c0.3-0.078,0.598-0.166,0.892-0.262
			c0.033-0.012,0.066-0.022,0.1-0.034c0.291-0.097,0.578-0.204,0.862-0.32c0.023-0.01,0.048-0.021,0.071-0.03
			c0.898-0.374,1.75-0.843,2.529-1.408c0.009-0.006,0.018-0.014,0.028-0.02c2.528-1.846,4.274-4.71,4.274-8.692
			C345.028,79.521,338.719,76.772,332.618,74.115z"/>
		<path fill="#FFFFFF" d="M318.376,93.747c-2.445-0.571-5.601-1.465-8.792-2.803c-8.928-3.744-13.699-9.205-13.815-15.805
			c-0.144-0.531,0.102-1.455,2.358-4.91l-8.042-10.098c-0.937,3.584-2.665,10.268-3.249,13.026c1.789,1.118,3.613,2.229,4.127,2.493
			l0.655,0.092l0.205,0.795c3.887,15.107,14.264,19.061,23.42,22.549c1.919,0.731,3.732,1.422,5.419,2.191
			c1.825,0.832,4.308,3.415,5.685,4.95c1.262-1.553,3.496-4.128,5.074-4.973c0.576-0.309,1.165-0.603,1.758-0.89
			c-0.255,0.009-0.51,0.015-0.77,0.015C325.768,100.381,320.923,98.001,318.376,93.747z"/>
	</g>
	<g>
		<path fill="#414142" d="M323.835,40.882c0-0.422-0.044-0.834-0.119-1.234h-0.004c-0.218-1.147-0.726-2.195-1.451-3.061h0.022
			c-1.15-1.388-2.847-2.309-4.76-2.448h-0.505h-8.646v2.448v3.062v2.449v5.485h8.646C320.778,47.584,323.835,44.577,323.835,40.882z
			 M310.822,36.587h6.197c1.966,0,3.631,1.293,4.177,3.062h-10.375V36.587z M310.822,45.16v-3.062h10.394
			c-0.518,1.786-2.175,3.062-4.197,3.062H310.822z"/>
		<path fill="#414142" d="M326.343,28.758c3.202,0,5.807-2.604,5.807-5.808c0-3.2-2.604-5.805-5.807-5.805
			c-3.201,0-5.806,2.604-5.806,5.805C320.537,26.153,323.142,28.758,326.343,28.758z M326.343,19.595
			c1.852,0,3.357,1.506,3.357,3.355c0,1.852-1.506,3.359-3.357,3.359c-1.851,0-3.357-1.508-3.357-3.359
			C322.986,21.101,324.492,19.595,326.343,19.595z"/>
		<path fill="#414142" d="M365.913,72.593c-1.033-2.994-2.73-9.916-3.649-13.775l-1.158-4.859L348.74,69.315l1.155,1.525
			c0.705,0.929,1.838,2.417,2.481,3.215c-0.55,4.387-2.651,7.741-5.059,10.227c-1.271-7.006-8.134-9.979-13.723-12.412
			c-1.014-0.441-1.999-0.871-2.917-1.308c0.003-0.69,0.005-1.391,0.008-2.115c1.506-2.081,2.438-4.509,2.704-7.067
			c2.026,0.595,4.373,2.107,4.373,5.211v1.225h9.185v-1.225c0-4.354-1.785-7.969-5.01-10.455c-2.702-2.084-6.436-3.244-10.399-3.301
			c-0.239-0.426-0.493-0.844-0.773-1.242c0-4.137,0-6.688,0-9.494h21.694v-7.96h-21.432V33.97c4.377-1.82,7.251-6.128,7.251-11.02
			c0-6.576-5.347-11.926-11.921-11.926c-6.57,0-11.915,5.35-11.915,11.926c0,1.793,0.403,3.514,1.135,5.065H302.25v6.123h-9.185
			v7.96h9.185v32.452h16.403c0.435,0,0.844-0.052,1.231-0.107c0.597,0.649,1.253,1.241,1.959,1.78v8.125h-5.511v1.224
			c0,1.95,0.266,3.732,0.776,5.335c-1.986-0.531-4.271-1.256-6.578-2.222c-5.549-2.327-12.19-6.574-12.313-13.589l-0.003-0.16
			c0.129-0.334,0.556-1.214,1.963-3.367l0.967-1.481l-12.192-15.309l-1.237,4.733c-0.97,3.711-2.687,10.352-3.277,13.137
			l-0.355,1.677l1.453,0.908c0.525,0.329,3.008,1.878,4.058,2.463c4.317,15.884,15.649,20.202,24.775,23.679
			c1.878,0.715,3.651,1.391,5.276,2.131c0.794,0.363,2.493,1.697,4.876,4.357l1.916,2.136l1.809-2.227
			c2.165-2.663,3.656-3.998,4.33-4.358c1.877-1.006,3.92-1.898,5.896-2.762c8.419-3.678,17.953-7.841,22.537-23.822
			c0.581-0.278,1.994-0.703,2.721-0.921l0.584-0.177l2.424-0.744L365.913,72.593z M344.281,65.366h-3.87
			c-0.576-3.585-3.657-5.867-6.984-6.547c-0.096-1.157-0.35-2.323-0.758-3.487C338.336,55.782,343.679,58.943,344.281,65.366z
			 M302.25,39.649h-6.735v-3.062h6.735V39.649z M350.01,36.587v3.062h-19.684c-0.103-1.065-0.344-2.088-0.688-3.062H350.01z
			 M326.358,13.473c5.228,0,9.473,4.251,9.473,9.478c0,4.149-2.552,7.78-6.502,9.036l-0.75,0.271v2.068
			c-2.104-3.549-5.848-5.992-10.177-6.268c-0.959-1.49-1.51-3.248-1.51-5.107C316.892,17.724,321.131,13.473,326.358,13.473z
			 M304.699,72.102v-0.024V42.099v-2.449v-3.062v-2.448v-3.675v-0.025h12.885c4.845,0,9.032,3.559,10.091,8.166
			c0.003,0.009,0.006,0.018,0.008,0.026c0.08,0.354,0.144,0.714,0.186,1.079c0.002,0.012,0.004,0.023,0.006,0.035
			c0.041,0.367,0.065,0.74,0.065,1.118c0,0.005-0.001,0.009-0.001,0.014c0,0.004,0.001,0.008,0.001,0.011
			c0,2.666-0.969,5.164-2.727,7.037l-0.92,0.979v-0.024l-0.079,0.084l1.221,0.799c1.455,0.954,2.676,2.188,3.594,3.612
			c0.124,0.193,0.244,0.389,0.357,0.587c0.117,0.208,0.231,0.417,0.336,0.632c0.867,1.773,1.307,3.545,1.307,5.327
			c0,0.003,0,0.006,0,0.009c0,0.001,0,0.002,0,0.002c-0.001,0.331-0.022,0.66-0.051,0.987c-0.002,0.021-0.002,0.044-0.004,0.064
			c-0.006,0.077-0.013,0.155-0.021,0.231c-0.035,0.3-0.082,0.597-0.139,0.893c-0.024,0.131-0.052,0.261-0.08,0.391
			c-0.009,0.041-0.016,0.081-0.024,0.121c0-0.008,0-0.017,0-0.025c-0.423,1.814-1.263,3.523-2.471,4.995c0,0.009,0,0.017,0,0.026
			c-0.277,0.338-0.571,0.667-0.887,0.979c-0.987-0.752-1.57-1.486-1.803-2.272c-0.004-0.018-0.008-0.034-0.013-0.053
			c-0.03-0.108-0.054-0.219-0.071-0.33c-0.02-0.143-0.033-0.287-0.033-0.436c0-0.002,0-0.004,0-0.006
			c0-0.554,0.112-1.082,0.336-1.578c0.033-0.076,0.07-0.15,0.11-0.225l0.04-0.078c0.534-1.154,0.805-2.39,0.805-3.671
			c0-1.728-0.619-3.521-1.448-4.72c-0.934-1.352-2.168-2.445-3.252-2.986c-1.084-0.539-2.647-0.956-3.999-0.956h-9.651v17.119h8.532
			c0.229,1.325,0.665,2.56,1.292,3.699H304.699z M328.338,47.882c-0.002,0.336-0.004,0.68-0.007,1.033
			c-0.146-0.127-0.293-0.253-0.444-0.374C328.047,48.327,328.193,48.104,328.338,47.882z M316.702,65.979h-5.88V53.732h7.202
			c1.412,0,2.744,0.47,3.819,1.293v0.88C318.6,58.356,316.71,61.991,316.702,65.979z M331.42,101.256
			c-1.578,0.845-3.812,3.42-5.074,4.973c-1.377-1.535-3.86-4.118-5.685-4.95c-1.688-0.77-3.5-1.46-5.419-2.191
			c-9.156-3.488-19.533-7.441-23.42-22.549l-0.205-0.795l-0.655-0.092c-0.514-0.264-2.338-1.375-4.127-2.493
			c0.584-2.759,2.312-9.442,3.249-13.026l8.042,10.098c-2.256,3.455-2.502,4.379-2.358,4.91c0.116,6.6,4.887,12.061,13.815,15.805
			c3.191,1.338,6.347,2.231,8.792,2.803c2.547,4.254,7.392,6.634,14.033,6.634c0.26,0,0.515-0.006,0.77-0.015
			C332.585,100.653,331.997,100.947,331.42,101.256z M340.753,95.356c-0.011,0.006-0.02,0.014-0.028,0.02
			c-0.779,0.565-1.631,1.034-2.529,1.408c-0.023,0.01-0.048,0.021-0.071,0.03c-0.284,0.116-0.571,0.224-0.862,0.32
			c-0.033,0.012-0.066,0.022-0.1,0.034c-0.294,0.096-0.592,0.184-0.892,0.262c-0.011,0.004-0.022,0.006-0.034,0.009
			c-0.295,0.075-0.594,0.142-0.895,0.2c-0.028,0.006-0.056,0.012-0.083,0.018c-0.294,0.055-0.587,0.1-0.882,0.138
			c-0.051,0.007-0.104,0.014-0.154,0.021c-0.289,0.034-0.58,0.062-0.869,0.08c-0.047,0.004-0.094,0.006-0.14,0.008
			c-0.302,0.018-0.604,0.028-0.905,0.028c-0.144,0-0.297-0.002-0.455-0.005c-0.043-0.001-0.088-0.002-0.132-0.004
			c-0.123-0.004-0.249-0.008-0.379-0.014c-0.048-0.002-0.094-0.004-0.142-0.007c-0.158-0.009-0.32-0.019-0.486-0.03
			c-0.018-0.002-0.033-0.002-0.049-0.004c-0.198-0.016-0.4-0.033-0.607-0.056c-0.004-0.001-0.006-0.001-0.01-0.001
			c-0.197-0.021-0.4-0.047-0.605-0.075c-0.023-0.003-0.047-0.007-0.07-0.01c-0.207-0.03-0.416-0.062-0.629-0.1
			c-0.002-0.001-0.004-0.001-0.007-0.001c-3.452-0.607-7.584-2.344-9.319-6.992c-0.027-0.07-0.052-0.144-0.078-0.217
			c-0.114-0.326-0.221-0.662-0.312-1.018c-0.001-0.002-0.001-0.002-0.001-0.003c-0.089-0.353-0.161-0.724-0.225-1.105
			c-0.015-0.093-0.03-0.188-0.044-0.282c-0.057-0.391-0.105-0.791-0.134-1.212h3.218h0.643c0.203,1.794,0.86,3.253,1.807,4.409
			c0.548,0.669,1.195,1.234,1.911,1.701c0.008,0.004,0.016,0.01,0.023,0.015c0.716,0.462,1.5,0.825,2.325,1.093
			c0.86,0.279,1.762,0.458,2.677,0.535l0,0c0.36,0.03,0.721,0.051,1.08,0.051c0.338,0,0.668-0.011,0.99-0.032
			c0.174-0.012,0.339-0.034,0.508-0.052c0.142-0.014,0.287-0.023,0.426-0.043c0.229-0.031,0.449-0.073,0.668-0.116
			c0.069-0.013,0.143-0.022,0.212-0.038c0.255-0.055,0.497-0.119,0.737-0.188c0.029-0.009,0.061-0.015,0.088-0.022
			c0.262-0.078,0.514-0.166,0.758-0.264c0.004-0.002,0.01-0.003,0.015-0.004c0.746-0.298,1.41-0.678,1.985-1.133
			c1.191-0.947,1.993-2.223,2.325-3.77c0.056-0.264,0.101-0.537,0.131-0.815c0-0.005,0.001-0.009,0.002-0.014
			c0.03-0.283,0.046-0.575,0.046-0.874c0-4.803-4.768-6.761-9.813-8.834c-1.763-0.725-3.552-1.461-5.201-2.33
			c-0.001,0-0.001,0-0.001,0c-1.854-0.977-3.531-2.118-4.784-3.6c-1.257-1.486-1.971-3.182-2.181-5.176
			c-0.047-0.447-0.069-0.87-0.069-1.292c0-0.284,0.017-0.565,0.041-0.845c0.006-0.069,0.012-0.139,0.02-0.207
			c0.03-0.277,0.066-0.554,0.119-0.825c0-0.003,0.001-0.005,0.002-0.009c0.052-0.27,0.119-0.536,0.193-0.8
			c0.018-0.063,0.036-0.128,0.056-0.191c0.08-0.265,0.168-0.527,0.27-0.784c0-0.001,0.001-0.002,0.002-0.004
			c0.102-0.256,0.218-0.506,0.341-0.752c0.029-0.059,0.058-0.115,0.087-0.172c0.129-0.247,0.266-0.49,0.416-0.728
			c0-0.001,0-0.001,0-0.001c0.149-0.236,0.313-0.465,0.482-0.69c0.038-0.05,0.075-0.099,0.113-0.147
			c0.687-0.88,1.524-1.669,2.499-2.334c0.319,0.764,0.485,1.587,0.485,2.431c0,0.91-0.189,1.786-0.563,2.606
			c-0.068,0.125-0.129,0.25-0.182,0.371c-0.363,0.807-0.547,1.674-0.547,2.579c0,1.304,0.439,2.487,1.311,3.573
			c0.128,0.16,0.271,0.318,0.418,0.475c0.045,0.047,0.09,0.096,0.137,0.143c0.13,0.133,0.269,0.264,0.412,0.393
			c0.1,0.088,0.203,0.175,0.309,0.262c0.115,0.096,0.229,0.191,0.354,0.286c0.248,0.188,0.506,0.374,0.786,0.555
			c0.233,0.151,0.476,0.3,0.726,0.444c0.018,0.01,0.036,0.02,0.055,0.031c0.24,0.137,0.484,0.273,0.736,0.407
			c0.771,0.411,1.598,0.804,2.46,1.192c0.629,0.283,1.273,0.566,1.933,0.853c6.102,2.657,12.41,5.405,12.41,12.549
			C345.028,90.646,343.282,93.511,340.753,95.356z M328.282,91.272c-1.752-0.844-3.377-2.489-3.377-5.7v-1.224h-0.612v-6.527
			c1.266,0.715,2.595,1.336,3.914,1.904C328.2,85.807,328.221,89.271,328.282,91.272z M330.655,80.747
			c4.367,1.795,8.104,3.373,8.104,6.488c0,1.538-0.545,2.593-1.332,3.324c-2.131,0.797-4.28,1.328-6.224,1.523
			c-0.142-0.016-0.29-0.037-0.444-0.061C330.678,90.235,330.653,86.554,330.655,80.747z M363.028,73.563
			c-2.952,0.887-4.008,1.283-4.277,2.256c-2.975,10.66-8.143,15.689-13.861,19.009c1.541-2.029,2.467-4.528,2.615-7.353
			c3.43-2.973,6.76-7.41,7.366-13.686l0.051-0.533l-0.357-0.399c-0.333-0.372-1.648-2.085-2.717-3.495l8.034-9.978
			c0.941,3.958,2.65,10.921,3.715,14.007C363.403,73.451,363.204,73.511,363.028,73.563z"/>
	</g>
</g>
</svg>
